Coordinates
version=1
nRows=9
nColumns=24
inDegrees=yes

Units are S.I. units (second, meters, Newtons, ...)
Angles are in degrees.

endheader
time	pelvis_tilt	pelvis_list	pelvis_rotation	pelvis_tx	pelvis_ty	pelvis_tz	hip_flexion_r	hip_adduction_r	hip_rotation_r	knee_angle_r	ankle_angle_r	subtalar_angle_r	mtp_angle_r	hip_flexion_l	hip_adduction_l	hip_rotation_l	knee_angle_l	ankle_angle_l	subtalar_angle_l	mtp_angle_l	lumbar_extension	lumbar_bending	lumbar_rotation
      5.83000000	     14.49201667	     -1.92249362	    -17.18239978	     -0.66218649	      0.82722114	      0.21589980	    -10.02884755	     -2.67927469	     11.18071088	    -60.57870884	    -10.92127708	    -10.93138515	      0.00000000	     -5.03521045	      4.55329259	     -0.10302861	    -12.78476666	      7.47663256	    -18.23185228	      0.00000000	    -28.82147812	     -4.83098344	     15.54576558
      5.84000000	     13.93053979	     -2.11287809	    -16.89285137	     -0.65025739	      0.82859192	      0.21491996	     -7.16347202	     -1.36666215	     10.90234890	    -62.52618900	     -8.53106582	    -11.85303282	      0.00000000	     -5.98288862	      4.37769113	     -0.33873694	    -11.66574007	      8.19632213	    -17.17773357	      0.00000000	    -28.59420235	     -4.31075375	     14.53546100
      5.85000000	     13.45053283	     -2.44497958	    -16.34277352	     -0.63831066	      0.82999838	      0.21371352	     -4.56121552	      0.05764773	     10.30717266	    -63.87380638	     -6.17326322	    -12.39794683	      0.00000000	     -7.07101436	      4.05093483	     -0.28403148	    -10.49884835	      8.76995841	    -16.24181285	      0.00000000	    -28.50358859	     -3.55588218	     13.36191776
      5.86000000	     12.95736870	     -2.81374535	    -15.58081780	     -0.62633883	      0.83123604	      0.21229565	     -2.05196791	      1.45586349	      9.39919811	    -64.69168724	     -3.98332668	    -12.64839110	      0.00000000	     -8.13395194	      3.64287651	     -0.06001180	     -9.33907945	      9.30840839	    -15.31029016	      0.00000000	    -28.38834180	     -2.66738966	     12.04880131
      5.87000000	     12.49026852	     -3.19981877	    -14.63491703	     -0.61434985	      0.83228818	      0.21069936	      0.33644261	      2.76270769	      8.21845698	    -65.00697946	     -2.02841848	    -12.63806055	      0.00000000	     -9.20487123	      3.18051546	      0.32201241	     -8.18567957	      9.82602623	    -14.39199110	      0.00000000	    -28.28409598	     -1.69501890	     10.62302199
      5.88000000	     12.07079368	     -3.57951412	    -13.53265572	     -0.60235285	      0.83311085	      0.20894982	      2.59364489	      3.92676803	      6.81336304	    -64.85603493	     -0.31468919	    -12.41645313	      0.00000000	    -10.28864588	      2.69124709	      0.82916855	     -7.05317457	     10.36019087	    -13.49983931	      0.00000000	    -28.19940297	     -0.68496604	      9.11141562
      5.89000000	     11.71164742	     -3.92125238	    -12.28313958	     -0.59037362	      0.83371721	      0.20710255	      4.70655703	      4.91356426	      5.24558842	    -64.26043826	      1.15643269	    -12.01212901	      0.00000000	    -11.37563404	      2.19912758	      1.42893386	     -5.96321888	     10.85379452	    -12.60873967	      0.00000000	    -28.15655831	      0.29759430	      7.49489412
      5.90000000	     11.44852041	     -4.19808608	    -10.92315385	     -0.57849292	      0.83408776	      0.20521066	      6.65108067	      5.69000090	      3.57824177	    -63.26455036	      2.41178377	    -11.49926338	      0.00000000	    -12.47846085	      1.73873128	      2.10021116	     -4.94940202	     11.31929254	    -11.75571702	      0.00000000	    -28.20002702	      1.20249039	      5.77286536
      5.91000000	     11.26986901	     -4.41808282	     -9.53439771	     -0.56664163	      0.83418693	      0.20335181	      8.41026556	      6.28677590	      1.93176142	    -61.87536622	      3.51661860	    -10.91473009	      0.00000000	    -13.61576511	      1.31166827	      2.84507280	     -3.99211673	     11.80292899	    -10.98156956	      0.00000000	    -28.30870423	      2.01071569	      4.11329141
